
<svg width="209px" height="53px" viewBox="0 0 209 53" version="1.1" xmlns="http://www.w3.org/2000/svg" xmlns:xlink="http://www.w3.org/1999/xlink">
    <!-- Generator: Sketch 46.1 (44463) - http://www.bohemiancoding.com/sketch -->
    <desc>Created with Sketch.</desc>
    <defs>
        <polygon id="path-1" points="13.9035646 0.384616193 13.9035646 24.3367824 0.00674087951 24.3367824 0.00674087951 0.384616193 13.9035646 0.384616193"></polygon>
        <polygon id="path-3" points="4.41349653e-15 47.386794 4.41349653e-15 0.0853733938 47.0729632 0.0853733938 47.0729632 47.386794 0 47.386794"></polygon>
    </defs>
    <g id="Symbols" stroke="none" stroke-width="1" fill="none" fill-rule="evenodd">
        <g id="Nav---Shadow" transform="translate(-203.000000, -97.000000)">
            <g id="Logo">
                <g transform="translate(203.000000, 97.000000)">
                    <path d="M60.2878902,43.2023576 C60.123039,43.2291835 59.8620802,43.2439377 59.7105773,43.2439377 C59.5450586,43.2439377 59.2574033,43.2291835 59.1059003,43.2023576 L58.9951096,42.4968367 L57.563507,42.4968367 L57.563507,49.5480218 L58.5265851,49.6861751 C58.5412683,49.8243284 58.5552839,50.0597256 58.5552839,50.1985496 C58.5552839,50.3360323 58.5412683,50.5580165 58.5265851,50.6954992 L55.252253,50.6954992 C55.2382373,50.5580165 55.224889,50.3360323 55.224889,50.1985496 C55.224889,50.0597256 55.2382373,49.8243284 55.252253,49.6861751 L56.2159985,49.5480218 L56.2159985,42.4968367 L54.7984116,42.4968367 L54.578165,43.2439377 C54.2210986,43.2439377 53.8626974,43.2157705 53.4909479,43.1466939 C53.505631,42.7731433 53.5596916,42.026713 53.6424509,41.3768558 L60.2878902,41.3768558 L60.2878902,43.2023576 Z" id="Fill-1" fill="#4F4F4F"></path>
                    <path d="M69.5153534,50.6954321 L62.9660216,50.6954321 C62.9526733,50.5579495 62.9386576,50.3359652 62.9386576,50.1984825 C62.9386576,50.0596586 62.9526733,49.8242614 62.9660216,49.686108 L63.9290997,49.5479547 L63.9290997,42.5242662 L62.9660216,42.3861128 C62.9526733,42.2479595 62.9386576,42.013233 62.9386576,41.8750796 C62.9386576,41.7362556 62.9526733,41.5156127 62.9660216,41.3767887 L69.432594,41.3767887 L69.432594,43.3679404 C69.2677428,43.3954369 69.006784,43.4095205 68.8552811,43.4095205 C68.6904299,43.4095205 68.4007723,43.3954369 68.2492694,43.3679404 L68.1124495,42.4967696 L65.2772756,42.4967696 L65.2772756,45.3315955 L68.3046647,45.3315955 C68.3046647,45.6494823 68.2779682,46.1605155 68.2225728,46.5065695 L65.2772756,46.5065695 L65.2772756,49.5754513 L68.1952088,49.5754513 L68.3320287,48.6492874 C68.4835316,48.6211202 68.7725218,48.6077073 68.9380404,48.6077073 C69.0895433,48.6077073 69.3505021,48.6211202 69.5153534,48.6492874 L69.5153534,50.6954321 Z" id="Fill-3" fill="#4F4F4F"></path>
                    <path d="M76.2866002,43.3399073 C76.2038409,43.0636007 76.121749,42.7323009 76.1077333,42.5659804 L75.9969426,42.5659804 C75.9835943,42.7323009 75.900835,43.0636007 75.8187431,43.3399073 L74.7729057,46.7689267 L77.3324376,46.7689267 L76.2866002,43.3399073 Z M80.1255645,50.6955663 L77.5253202,50.6955663 C77.5106371,50.5580836 77.4972889,50.3360994 77.4972889,50.1986167 C77.4972889,50.0597927 77.5106371,49.8243955 77.5253202,49.6862422 L78.1853925,49.5755854 L77.6621401,47.8473274 L74.4432033,47.8473274 L73.9206182,49.5755854 L74.5806905,49.6862422 C74.5940388,49.8243955 74.6080545,50.0597927 74.6080545,50.1986167 C74.6080545,50.3360994 74.5940388,50.5580836 74.5806905,50.6955663 L72.1039178,50.6955663 C72.0905696,50.5580836 72.0772213,50.3360994 72.0772213,50.1986167 C72.0772213,50.0597927 72.0905696,49.8243955 72.1039178,49.6862422 L72.641186,49.5755854 C73.4661094,46.8105068 74.3604439,44.101092 75.3368703,41.3769229 L76.9333242,41.3769229 C77.883054,44.0870084 78.7633729,46.8105068 79.5882963,49.5755854 L80.1255645,49.6862422 C80.1389127,49.8243955 80.152261,50.0597927 80.152261,50.1986167 C80.152261,50.3360994 80.1389127,50.5580836 80.1255645,50.6955663 L80.1255645,50.6955663 Z" id="Fill-5" fill="#4F4F4F"></path>
                    <path d="M88.6656581,50.211426 C87.9922376,50.625886 86.9730967,50.8337867 86.1621889,50.8337867 C83.5198976,50.8337867 82.1303421,49.1746054 82.1303421,46.0225634 C82.1303421,42.6901172 83.8502675,41.2388366 86.1201418,41.2388366 C86.8356095,41.2388366 87.8133707,41.3769899 88.5695505,41.7230439 L88.5695505,43.6169517 C88.4046993,43.6444482 88.1430731,43.6585318 87.9922376,43.6585318 C87.826719,43.6585318 87.5377288,43.6444482 87.3862259,43.6169517 L87.249406,42.5942147 C86.9871124,42.4835579 86.4918913,42.4003976 86.1621889,42.4003976 C84.5657351,42.4003976 83.5619447,43.3124779 83.5619447,46.0225634 C83.5619447,48.5522448 84.4008839,49.6722257 86.1755372,49.6722257 C86.6013472,49.6722257 86.9323845,49.6165619 87.3455136,49.4931628 L87.4823334,48.5388318 C87.6338364,48.5113353 87.9228266,48.496581 88.0876778,48.496581 C88.2391807,48.496581 88.5008069,48.5113353 88.6656581,48.5388318 L88.6656581,50.211426 Z" id="Fill-7" fill="#4F4F4F"></path>
                    <path d="M100.288403,50.6954321 L97.0974973,50.6954321 C97.0828142,50.5579495 97.0687985,50.3359652 97.0687985,50.1984825 C97.0687985,50.0596586 97.0828142,49.8242614 97.0974973,49.686108 L97.9778161,49.5479547 L97.9778161,46.5065695 L93.9459693,46.5065695 L93.9459693,49.5479547 L94.8262881,49.686108 C94.8396364,49.8242614 94.8543195,50.0596586 94.8543195,50.1984825 C94.8543195,50.3359652 94.8396364,50.5579495 94.8262881,50.6954321 L91.6340478,50.6954321 C91.6206995,50.5579495 91.6073513,50.3359652 91.6073513,50.1984825 C91.6073513,50.0596586 91.6206995,49.8242614 91.6340478,49.686108 L92.5971259,49.5479547 L92.5971259,42.5242662 L91.6340478,42.3861128 C91.6206995,42.2479595 91.6073513,42.013233 91.6073513,41.8750796 C91.6073513,41.7362556 91.6206995,41.5156127 91.6340478,41.3767887 L94.8262881,41.3767887 C94.8396364,41.5156127 94.8543195,41.7362556 94.8543195,41.8750796 C94.8543195,42.013233 94.8396364,42.2479595 94.8262881,42.3861128 L93.9459693,42.5242662 L93.9459693,45.3584214 L97.9778161,45.3584214 L97.9778161,42.5242662 L97.0974973,42.3861128 C97.0828142,42.2479595 97.0687985,42.013233 97.0687985,41.8750796 C97.0687985,41.7362556 97.0828142,41.5156127 97.0974973,41.3767887 L100.288403,41.3767887 C100.303086,41.5156127 100.316434,41.7362556 100.316434,41.8750796 C100.316434,42.013233 100.303086,42.2479595 100.288403,42.3861128 L99.3253246,42.5242662 L99.3253246,49.5479547 L100.288403,49.686108 C100.303086,49.8242614 100.316434,50.0596586 100.316434,50.1984825 C100.316434,50.3359652 100.303086,50.5579495 100.288403,50.6954321" id="Fill-9" fill="#4F4F4F"></path>
                    <path d="M109.729639,50.6954321 L103.180307,50.6954321 C103.166958,50.5579495 103.152943,50.3359652 103.152943,50.1984825 C103.152943,50.0596586 103.166958,49.8242614 103.180307,49.686108 L104.143385,49.5479547 L104.143385,42.5242662 L103.180307,42.3861128 C103.166958,42.2479595 103.152943,42.013233 103.152943,41.8750796 C103.152943,41.7362556 103.166958,41.5156127 103.180307,41.3767887 L109.646879,41.3767887 L109.646879,43.3679404 C109.482028,43.3954369 109.221069,43.4095205 109.069566,43.4095205 C108.904715,43.4095205 108.615057,43.3954369 108.463555,43.3679404 L108.326735,42.4967696 L105.491561,42.4967696 L105.491561,45.3315955 L108.51895,45.3315955 C108.51895,45.6494823 108.492253,46.1605155 108.436858,46.5065695 L105.491561,46.5065695 L105.491561,49.5754513 L108.409494,49.5754513 L108.546314,48.6492874 C108.697817,48.6211202 108.986807,48.6077073 109.152326,48.6077073 C109.303161,48.6077073 109.564787,48.6211202 109.729639,48.6492874 L109.729639,50.6954321 Z" id="Fill-11" fill="#4F4F4F"></path>
                    <path d="M116.097434,42.386314 C115.863171,42.386314 115.285191,42.4003976 114.982853,42.4138106 L114.982853,45.8421593 L116.138146,45.8421593 C117.36285,45.8421593 117.968195,45.2620494 117.968195,44.0454953 C117.968195,42.9255144 117.36285,42.386314 116.097434,42.386314 L116.097434,42.386314 Z M120.127946,49.9760289 C120.127946,50.5581507 119.839623,50.8337867 119.234279,50.8337867 C118.628267,50.8337867 118.188441,50.570893 117.803343,49.810379 L116.331696,46.9071471 L114.982853,46.9071471 L114.982853,49.5481559 L115.932583,49.6863092 C115.945263,49.8244626 115.959279,50.0591891 115.959279,50.1980131 C115.959279,50.3361664 115.945263,50.5581507 115.932583,50.6956333 L112.698295,50.6956333 C112.684279,50.5581507 112.670931,50.3361664 112.670931,50.1980131 C112.670931,50.0591891 112.684279,49.8244626 112.698295,49.6863092 L113.661373,49.5481559 L113.661373,42.5244674 L112.698295,42.386314 C112.684279,42.2481607 112.670931,42.0127635 112.670931,41.8746102 C112.670931,41.7357862 112.684279,41.5151433 112.698295,41.3769899 C113.894968,41.3213262 115.009549,41.2938297 116.014674,41.2938297 C118.161745,41.2938297 119.35775,42.1234203 119.35775,44.0179988 C119.35775,45.2211399 118.697678,46.1882132 117.624477,46.5342672 L118.959304,49.1055287 C119.151519,49.4790792 119.303022,49.5756524 119.673437,49.5756524 L120.127946,49.5756524 L120.127946,49.9760289 Z" id="Fill-13" fill="#4F4F4F"></path>
                    <path d="M130.4794,50.6954321 L127.205068,50.6954321 C127.191053,50.5579495 127.177704,50.3359652 127.177704,50.1984825 C127.177704,50.0596586 127.191053,49.8242614 127.205068,49.686108 L128.167479,49.5479547 L128.167479,42.5242662 L127.205068,42.3861128 C127.191053,42.2479595 127.177704,42.013233 127.177704,41.8750796 C127.177704,41.7362556 127.191053,41.5156127 127.205068,41.3767887 L130.4794,41.3767887 C130.493416,41.5156127 130.507432,41.7362556 130.507432,41.8750796 C130.507432,42.013233 130.493416,42.2479595 130.4794,42.3861128 L129.516322,42.5242662 L129.516322,49.5479547 L130.4794,49.686108 C130.493416,49.8242614 130.507432,50.0596586 130.507432,50.1984825 C130.507432,50.3359652 130.493416,50.5579495 130.4794,50.6954321" id="Fill-15" fill="#4F4F4F"></path>
                    <path d="M141.918006,42.386314 L141.051035,42.5244674 L141.051035,50.6540532 C140.720665,50.7090463 140.184732,50.76471 139.826331,50.76471 L136.01473,44.2527253 C135.849879,43.9764186 135.657664,43.5337914 135.562224,43.2293176 L135.465449,43.2293176 C135.506829,43.5887845 135.533525,44.0179988 135.533525,44.2943054 L135.533525,49.5481559 L136.387147,49.6863092 C136.400496,49.8244626 136.413844,50.0591891 136.413844,50.1980131 C136.413844,50.3361664 136.400496,50.5581507 136.387147,50.6956333 L133.359758,50.6956333 C133.345743,50.5581507 133.333062,50.3361664 133.333062,50.1980131 C133.333062,50.0591891 133.345743,49.8244626 133.359758,49.6863092 L134.322836,49.5481559 L134.322836,42.5244674 L133.359758,42.386314 C133.345743,42.2481607 133.333062,42.0127635 133.333062,41.8746102 C133.333062,41.7357862 133.345743,41.5151433 133.359758,41.3769899 L135.727075,41.3769899 L139.358474,47.5851714 C139.523992,47.8614781 139.703527,48.2759381 139.81365,48.5944955 L139.90909,48.5944955 C139.869045,48.3175182 139.840346,47.8058144 139.840346,47.5154241 L139.840346,42.5244674 L139.042119,42.386314 C139.028771,42.2481607 139.014756,42.0127635 139.014756,41.8746102 C139.014756,41.7357862 139.028771,41.5151433 139.042119,41.3769899 L141.918006,41.3769899 C141.932021,41.5151433 141.946037,41.7357862 141.946037,41.8746102 C141.946037,42.0127635 141.932021,42.2481607 141.918006,42.386314" id="Fill-17" fill="#4F4F4F"></path>
                    <path d="M147.973585,50.6954321 L144.699252,50.6954321 C144.685237,50.5579495 144.671888,50.3359652 144.671888,50.1984825 C144.671888,50.0596586 144.685237,49.8242614 144.699252,49.686108 L145.661663,49.5479547 L145.661663,42.5242662 L144.699252,42.3861128 C144.685237,42.2479595 144.671888,42.013233 144.671888,41.8750796 C144.671888,41.7362556 144.685237,41.5156127 144.699252,41.3767887 L147.973585,41.3767887 C147.9876,41.5156127 148.001616,41.7362556 148.001616,41.8750796 C148.001616,42.013233 147.9876,42.2479595 147.973585,42.3861128 L147.010506,42.5242662 L147.010506,49.5479547 L147.973585,49.686108 C147.9876,49.8242614 148.001616,50.0596586 148.001616,50.1984825 C148.001616,50.3359652 147.9876,50.5579495 147.973585,50.6954321" id="Fill-19" fill="#4F4F4F"></path>
                    <path d="M157.414553,43.2023576 C157.249702,43.2291835 156.988076,43.2439377 156.837241,43.2439377 C156.672389,43.2439377 156.384067,43.2291835 156.232564,43.2023576 L156.121773,42.4968367 L154.690838,42.4968367 L154.690838,49.5480218 L155.653248,49.6861751 C155.668599,49.8243284 155.681947,50.0597256 155.681947,50.1985496 C155.681947,50.3360323 155.668599,50.5580165 155.653248,50.6954992 L152.378916,50.6954992 C152.365568,50.5580165 152.351552,50.3360323 152.351552,50.1985496 C152.351552,50.0597256 152.365568,49.8243284 152.378916,49.6861751 L153.342662,49.5480218 L153.342662,42.4968367 L151.925075,42.4968367 L151.704828,43.2439377 C151.347762,43.2439377 150.989361,43.2157705 150.617611,43.1466939 C150.632294,42.7731433 150.686355,42.026713 150.769114,41.3768558 L157.414553,41.3768558 L157.414553,43.2023576 Z" id="Fill-21" fill="#4F4F4F"></path>
                    <path d="M163.367151,50.6954321 L160.092818,50.6954321 C160.078803,50.5579495 160.065454,50.3359652 160.065454,50.1984825 C160.065454,50.0596586 160.078803,49.8242614 160.092818,49.686108 L161.055896,49.5479547 L161.055896,42.5242662 L160.092818,42.3861128 C160.078803,42.2479595 160.065454,42.013233 160.065454,41.8750796 C160.065454,41.7362556 160.078803,41.5156127 160.092818,41.3767887 L163.367151,41.3767887 C163.381166,41.5156127 163.395849,41.7362556 163.395849,41.8750796 C163.395849,42.013233 163.381166,42.2479595 163.367151,42.3861128 L162.40474,42.5242662 L162.40474,49.5479547 L163.367151,49.686108 C163.381166,49.8242614 163.395849,50.0596586 163.395849,50.1984825 C163.395849,50.3359652 163.381166,50.5579495 163.367151,50.6954321" id="Fill-23" fill="#4F4F4F"></path>
                    <path d="M170.0517,43.3399073 C169.968941,43.0636007 169.886849,42.7323009 169.872833,42.5659804 L169.762043,42.5659804 C169.748694,42.7323009 169.665935,43.0636007 169.583843,43.3399073 L168.537338,46.7689267 L171.09687,46.7689267 L170.0517,43.3399073 Z M173.890665,50.6955663 L171.29042,50.6955663 C171.275737,50.5580836 171.261722,50.3360994 171.261722,50.1986167 C171.261722,50.0597927 171.275737,49.8243955 171.29042,49.6862422 L171.950493,49.5755854 L171.42724,47.8473274 L168.207636,47.8473274 L167.685718,49.5755854 L168.345791,49.6862422 C168.359139,49.8243955 168.372487,50.0597927 168.372487,50.1986167 C168.372487,50.3360994 168.359139,50.5580836 168.345791,50.6955663 L165.869018,50.6955663 C165.85567,50.5580836 165.841654,50.3360994 165.841654,50.1986167 C165.841654,50.0597927 165.85567,49.8243955 165.869018,49.6862422 L166.405619,49.5755854 C167.23121,46.8105068 168.124877,44.101092 169.10197,41.3769229 L170.698424,41.3769229 C171.648154,44.0870084 172.528473,46.8105068 173.353396,49.5755854 L173.890665,49.6862422 C173.903345,49.8243955 173.917361,50.0597927 173.917361,50.1986167 C173.917361,50.3360994 173.903345,50.5580836 173.890665,50.6955663 L173.890665,50.6955663 Z" id="Fill-25" fill="#4F4F4F"></path>
                    <path d="M182.121212,43.2023576 C181.955693,43.2291835 181.694734,43.2439377 181.543231,43.2439377 C181.37838,43.2439377 181.090057,43.2291835 180.938554,43.2023576 L180.827764,42.4968367 L179.396829,42.4968367 L179.396829,49.5480218 L180.359239,49.6861751 C180.37459,49.8243284 180.387938,50.0597256 180.387938,50.1985496 C180.387938,50.3360323 180.37459,50.5580165 180.359239,50.6954992 L177.084907,50.6954992 C177.071559,50.5580165 177.057543,50.3360323 177.057543,50.1985496 C177.057543,50.0597256 177.071559,49.8243284 177.084907,49.6861751 L178.048653,49.5480218 L178.048653,42.4968367 L176.631066,42.4968367 L176.410819,43.2439377 C176.053753,43.2439377 175.695352,43.2157705 175.323602,43.1466939 C175.338285,42.7731433 175.393013,42.026713 175.475105,41.3768558 L182.121212,41.3768558 L182.121212,43.2023576 Z" id="Fill-27" fill="#4F4F4F"></path>
                    <path d="M188.073876,50.6954321 L184.798876,50.6954321 C184.78486,50.5579495 184.772179,50.3359652 184.772179,50.1984825 C184.772179,50.0596586 184.78486,49.8242614 184.798876,49.686108 L185.761954,49.5479547 L185.761954,42.5242662 L184.798876,42.3861128 C184.78486,42.2479595 184.772179,42.013233 184.772179,41.8750796 C184.772179,41.7362556 184.78486,41.5156127 184.798876,41.3767887 L188.073876,41.3767887 C188.087224,41.5156127 188.101907,41.7362556 188.101907,41.8750796 C188.101907,42.013233 188.087224,42.2479595 188.073876,42.3861128 L187.110797,42.5242662 L187.110797,49.5479547 L188.073876,49.686108 C188.087224,49.8242614 188.101907,50.0596586 188.101907,50.1984825 C188.101907,50.3359652 188.087224,50.5579495 188.073876,50.6954321" id="Fill-29" fill="#4F4F4F"></path>
                    <path d="M198.706178,42.386314 L198.004059,42.5244674 C197.192483,45.2620494 196.312165,47.9862185 195.389131,50.6956333 L193.904136,50.6956333 C192.98177,47.9862185 192.101451,45.2620494 191.289876,42.5244674 L190.587756,42.386314 C190.573741,42.2481607 190.560392,42.0127635 190.560392,41.8746102 C190.560392,41.7357862 190.573741,41.5151433 190.587756,41.3769899 L193.367535,41.3769899 C193.380883,41.5151433 193.394231,41.7357862 193.394231,41.8746102 C193.394231,42.0127635 193.380883,42.2481607 193.367535,42.386314 L192.720811,42.5244674 L194.482116,48.4838387 C194.55086,48.7185653 194.619603,48.9807883 194.646967,49.2443527 L194.743075,49.2443527 C194.770439,48.9807883 194.839182,48.7185653 194.908593,48.4838387 L196.697262,42.5244674 L196.049871,42.386314 C196.035855,42.2481607 196.022507,42.0127635 196.022507,41.8746102 C196.022507,41.7357862 196.035855,41.5151433 196.049871,41.3769899 L198.706178,41.3769899 C198.720194,41.5151433 198.733542,41.7357862 198.733542,41.8746102 C198.733542,42.0127635 198.720194,42.2481607 198.706178,42.386314" id="Fill-31" fill="#4F4F4F"></path>
                    <path d="M207.781471,50.6954321 L201.232139,50.6954321 C201.218123,50.5579495 201.204775,50.3359652 201.204775,50.1984825 C201.204775,50.0596586 201.218123,49.8242614 201.232139,49.686108 L202.19455,49.5479547 L202.19455,42.5242662 L201.232139,42.3861128 C201.218123,42.2479595 201.204775,42.013233 201.204775,41.8750796 C201.204775,41.7362556 201.218123,41.5156127 201.232139,41.3767887 L207.698712,41.3767887 L207.698712,43.3679404 C207.53386,43.3954369 207.272234,43.4095205 207.121399,43.4095205 C206.95588,43.4095205 206.666222,43.3954369 206.515387,43.3679404 L206.3779,42.4967696 L203.542726,42.4967696 L203.542726,45.3315955 L206.570782,45.3315955 C206.570782,45.6494823 206.543418,46.1605155 206.488023,46.5065695 L203.542726,46.5065695 L203.542726,49.5754513 L206.460659,49.5754513 L206.598146,48.6492874 C206.748982,48.6211202 207.038639,48.6077073 207.20349,48.6077073 C207.354993,48.6077073 207.615952,48.6211202 207.781471,48.6492874 L207.781471,50.6954321 Z" id="Fill-33" fill="#4F4F4F"></path>
                    <path d="M76.9683634,31.5976789 C76.9683634,32.6579722 76.3963898,33.3205717 75.120962,33.3205717 C73.4050411,33.3205717 72.2624286,32.7907604 70.7227049,30.4045975 L62.8946083,18.428179 L58.2327228,23.8195122 L58.2327228,30.6259111 L61.4429833,30.9350794 C61.4877,31.2442478 61.5304145,31.5976789 61.5304145,31.9068473 C61.5304145,32.2602784 61.4877,32.5694468 61.4429833,32.8792858 L52.5149887,32.8792858 C52.4709394,32.5694468 52.4268901,32.2602784 52.4268901,31.9068473 C52.4268901,31.5976789 52.4709394,31.2442478 52.5149887,30.9350794 L55.7252492,30.6259111 L55.7252492,5.34720459 L52.5149887,5.03736556 C52.4709394,4.72819718 52.4268901,4.4190288 52.4268901,4.06559771 C52.4268901,3.75642933 52.4709394,3.40232759 52.5149887,3.09315921 L61.4429833,3.09315921 C61.4877,3.40232759 61.5304145,3.75642933 61.5304145,4.06559771 C61.5304145,4.4190288 61.4877,4.72819718 61.4429833,5.03736556 L58.2327228,5.34720459 L58.2327228,20.7700792 L58.4082527,20.7700792 C59.7270624,18.958661 60.915059,17.4557405 62.1904868,15.9534907 L71.1625307,5.34720459 L68.3039973,5.03736556 C68.259948,4.72819718 68.2152313,4.4190288 68.2152313,4.06559771 C68.2152313,3.75642933 68.259948,3.40232759 68.3039973,3.09315921 L76.6600182,3.09315921 C76.7040675,3.40232759 76.7474494,3.75642933 76.7474494,4.06559771 C76.7474494,4.4190288 76.7040675,4.72819718 76.6600182,5.03736556 L74.1979287,5.34720459 L64.5217632,16.5275647 L72.9652154,29.2993708 C73.8008175,30.5373856 74.504939,30.8901461 75.7363175,30.8901461 L76.9683634,30.8901461 L76.9683634,31.5976789 Z" id="Fill-35" fill="#4F4F4F"></path>
                    <path d="M102.800348,32.8793529 L94.5764751,32.8793529 C94.5324258,32.6580393 94.4883765,32.3046082 94.4883765,31.9954398 C94.4883765,31.6862714 94.5324258,31.2885776 94.5764751,31.067264 L97.5224397,30.7580956 L97.5224397,16.129938 C97.5224397,13.3018186 96.1148639,11.6225179 93.0808007,11.6225179 C90.7061424,11.6225179 88.3308166,12.2851174 86.0002076,13.9644181 L86.0002076,30.7580956 L88.947507,31.067264 C88.9915563,31.2885776 89.0342708,31.6862714 89.0342708,31.9954398 C89.0342708,32.3046082 88.9915563,32.6580393 88.947507,32.8793529 L80.5474367,32.8793529 C80.50272,32.6580393 80.4586707,32.3046082 80.4586707,31.9954398 C80.4586707,31.6862714 80.50272,31.2885776 80.5474367,31.067264 L83.6689311,30.7580956 L83.6689311,11.9316863 L80.5474367,11.755306 C80.50272,11.5782552 80.4586707,11.2248241 80.4586707,10.9592478 C80.4586707,10.6943421 80.50272,10.340911 80.5474367,10.1202681 C82.3060721,9.76616632 84.8562603,9.5897861 86.0002076,9.5897861 L85.8680596,11.975949 L86.0442569,11.975949 C88.3755333,10.1202681 90.7501917,9.36847251 93.3884785,9.36847251 C96.8196529,9.36847251 99.8530487,10.7828675 99.8530487,16.129938 L99.8530487,30.7580956 L102.800348,31.067264 C102.844397,31.2885776 102.888447,31.6862714 102.888447,31.9954398 C102.888447,32.3046082 102.844397,32.6580393 102.800348,32.8793529" id="Fill-37" fill="#4F4F4F"></path>
                    <path d="M115.118471,11.5342607 C110.940461,11.5342607 108.169359,13.6555179 108.169359,21.3444886 C108.169359,28.9898671 110.765598,31.1553871 114.942941,31.1553871 C119.120952,31.1553871 121.891387,29.0341298 121.891387,21.3444886 C121.891387,13.6997807 119.296482,11.5342607 115.118471,11.5342607 M114.942941,33.320907 C109.269256,33.320907 105.662552,29.9187135 105.662552,21.3444886 C105.662552,13.0365105 109.753131,9.36874077 115.118471,9.36874077 C120.792156,9.36874077 124.39886,12.7716049 124.39886,21.3444886 C124.39886,29.6531372 120.307614,33.320907 114.942941,33.320907" id="Fill-39" fill="#4F4F4F"></path>
                    <path d="M160.745749,11.6223838 L158.41514,11.9315521 C156.787318,19.4890759 155.160831,25.8085849 152.961035,32.8792187 L150.454896,32.8792187 L144.737162,15.4229417 C144.472866,14.583962 144.253287,13.6115235 144.121139,12.4620341 L143.902227,12.4620341 C143.769412,13.6115235 143.549165,14.583962 143.286204,15.4229417 L137.567802,32.8792187 L135.062331,32.8792187 C132.862535,25.8085849 131.191998,19.4890759 129.608225,11.9315521 L127.100752,11.7551719 C127.05737,11.578121 127.01332,11.2246899 127.01332,10.9597843 C127.01332,10.694208 127.05737,10.2965142 127.100752,10.1201339 C128.860722,9.76603219 130.268298,9.58965197 131.41091,9.58965197 L135.677019,27.3115053 C135.941315,28.3717986 136.160894,29.3442371 136.293042,30.5815813 L136.469239,30.5815813 C136.644769,29.3442371 136.865016,28.3717986 137.216743,27.3115053 L142.846378,9.81029491 L145.265086,9.81029491 L150.894721,27.3115053 C151.246448,28.3717986 151.466695,29.3442371 151.641557,30.5815813 L151.818422,30.5815813 C151.949903,29.3442371 152.169482,28.3717986 152.43311,27.3115053 L156.128581,11.9315521 L152.961035,11.6223838 C152.916985,11.4010702 152.873603,11.004047 152.873603,10.694208 C152.873603,10.3850396 152.916985,10.0316085 152.961035,9.81029491 L160.745749,9.81029491 C160.789799,10.0316085 160.834515,10.3850396 160.834515,10.694208 C160.834515,11.004047 160.789799,11.4010702 160.745749,11.6223838" id="Fill-41" fill="#4F4F4F"></path>
                    <path d="M171.393069,32.8793529 L162.816801,32.8793529 C162.772752,32.6580393 162.72937,32.3046082 162.72937,31.9954398 C162.72937,31.6862714 162.772752,31.2885776 162.816801,31.067264 L165.940298,30.7580956 L165.940298,2.34210136 L162.816801,2.16505049 C162.772752,1.98799962 162.72937,1.63523917 162.72937,1.36966286 C162.72937,1.1047572 162.772752,0.750655457 162.816801,0.530012515 C164.576104,0.176581419 167.259775,0.000201194172 168.402387,0.000201194172 L168.270907,2.42995615 L168.270907,30.7580956 L171.393069,31.067264 C171.437118,31.2885776 171.481835,31.6862714 171.481835,31.9954398 C171.481835,32.3046082 171.437118,32.6580393 171.393069,32.8793529" id="Fill-43" fill="#4F4F4F"></path>
                    <path d="M182.984845,11.4458694 C179.29071,11.4458694 176.915384,13.7435069 176.695137,19.3561536 L188.657863,19.3561536 C188.700577,18.9584598 188.700577,18.250927 188.700577,17.8981665 C188.700577,13.1694328 186.458067,11.4458694 182.984845,11.4458694 M190.900373,21.30036 L176.651088,21.30036 L176.651088,21.5216736 C176.651088,27.8854452 178.453773,31.1119291 184.171507,31.1119291 C186.282537,31.1119291 188.481665,30.4479883 189.756426,29.6090086 C190.065438,30.2273454 190.372449,31.0669957 190.505264,31.7302659 C188.96554,32.7469671 186.369968,33.3210411 184.039359,33.3210411 C177.530072,33.3210411 174.187664,29.6090086 174.187664,21.6544617 C174.187664,12.9038565 177.969898,9.3688749 183.071609,9.3688749 C187.953741,9.3688749 190.989139,12.2848491 190.989139,18.030284 C190.989139,19.0027225 190.94509,20.2400667 190.900373,21.30036" id="Fill-45" fill="#4F4F4F"></path>
                    <g id="Group-49" transform="translate(194.884833, 8.983990)">
                        <mask id="mask-2" fill="white">
                            <use xlink:href="#path-1"></use>
                        </mask>
                        <g id="Clip-48"></g>
                        <path d="M6.03148537,24.3367824 C4.00922152,24.3367824 1.72132697,23.984022 0.00674087951,23.0558462 L0.00674087951,18.7248063 C0.226987438,18.6798729 0.622763829,18.6362809 0.973823495,18.6362809 C1.28150126,18.6362809 1.76470886,18.6798729 1.94157352,18.7248063 L2.38073181,21.5971884 C3.43658047,21.9948823 4.75605757,22.2597879 6.25173193,22.2597879 C9.68157152,22.2597879 11.5730223,20.6690127 11.5730223,18.149391 C11.5730223,12.4052973 0.357800545,13.4655906 0.357800545,6.92543874 C0.357800545,2.99209267 3.43658047,0.384616193 8.01103474,0.384616193 C9.81371945,0.384616193 11.6611209,0.560996417 13.3323251,1.04721567 L13.3323251,5.51104371 C13.1120785,5.55530642 12.6722528,5.59956914 12.364575,5.59956914 C12.0135154,5.59956914 11.6164042,5.55530642 11.3974924,5.51104371 L10.9576667,2.77144973 C10.1220646,2.59439885 8.89001873,2.4616107 7.74673887,2.4616107 C4.44904722,2.4616107 2.68840958,4.00812324 2.68840958,6.65986243 C2.68840958,11.3885961 13.9036313,10.4604203 13.9036313,18.0172735 C13.9036313,22.0834077 10.4297424,24.3367824 6.03148537,24.3367824" id="Fill-47" fill="#4F4F4F" mask="url(#mask-2)"></path>
                    </g>
                    <path d="M10.9696802,35.4532299 L7.42237576,39.01772 C7.13205075,39.3101222 6.66018918,39.3101222 6.36986418,39.01772 L1.97627904,34.6028492 C1.68595403,34.3111176 1.68595403,33.8376407 1.97627904,33.5452385 L5.52358346,29.9814191 C5.81457588,29.6890169 6.28577003,29.6890169 6.57609504,29.9814191 L10.9696802,34.3956192 C11.2606726,34.6873508 11.2606726,35.1608277 10.9696802,35.4532299" id="Fill-50" fill="#B6D23F"></path>
                    <path d="M23.1929637,21.5818306 L21.8841652,20.2666914 C21.5284337,19.9092364 21.5284337,19.3304678 21.8841652,18.9730128 L39.3230208,1.44900043 C39.6787523,1.0922161 40.2547304,1.0922161 40.610462,1.44900043 L41.9192605,2.76481032 C42.2749921,3.1222653 42.2749921,3.70103387 41.9192605,4.0578182 L24.4797376,21.5818306 C24.1246734,21.9392856 23.5486953,21.9392856 23.1929637,21.5818306" id="Fill-52" fill="#52C3CB"></path>
                    <path d="M18.675907,17.095603 L15.9408452,14.3479612 C15.6491854,14.0548884 15.6491854,13.5800701 15.9408452,13.2869973 L27.8341594,1.33606343 C28.1258192,1.04366124 28.5983482,1.04366124 28.8893406,1.33606343 L31.6244024,4.08437583 C31.9153948,4.37744867 31.9153948,4.85226692 31.6244024,5.14466912 L19.7310883,17.095603 C19.4400958,17.3886758 18.9675669,17.3886758 18.675907,17.095603" id="Fill-54" fill="#52C3CB"></path>
                    <path d="M12.8777495,11.2814938 L9.33044511,7.71700368 C9.0401201,7.42527213 9.0401201,6.95112453 9.33044511,6.65939298 L14.6437265,1.32037029 C14.9347189,1.02796809 15.4059131,1.02796809 15.6969055,1.32037029 L19.2442099,4.88486038 C19.5345349,5.17659193 19.5345349,5.65073953 19.2442099,5.94247108 L13.9302611,11.2814938 C13.6399361,11.573896 13.168742,11.573896 12.8777495,11.2814938" id="Fill-56" fill="#52C3CB"></path>
                    <path d="M19.924972,31.9677421 L21.2337705,33.2835519 C21.589502,33.6403363 21.589502,34.2191048 21.2337705,34.5765598 L3.79491494,52.1005722 C3.43918338,52.4580272 2.86320526,52.4580272 2.5074737,52.1005722 L1.19867521,50.785433 C0.84361106,50.427978 0.84361106,49.8485388 1.19867521,49.4917545 L18.6381981,31.9677421 C18.9932623,31.6109577 19.5699078,31.6109577 19.924972,31.9677421" id="Fill-58" fill="#1F84C6"></path>
                    <path d="M24.4424291,36.4539697 L27.1774909,39.2022821 C27.4684833,39.4946843 27.4684833,39.9695026 27.1774909,40.2625754 L15.2835094,52.2135092 C14.9925169,52.5065821 14.519988,52.5065821 14.2283281,52.2135092 L11.4939337,49.4651968 C11.2022739,49.1727947 11.2022739,48.6979764 11.4939337,48.4049036 L23.3865805,36.4539697 C23.6782403,36.1608969 24.1507693,36.1608969 24.4424291,36.4539697" id="Fill-60" fill="#1F84C6"></path>
                    <g id="Group-64" transform="translate(23.359483, 41.845705)" fill="#1F84C6">
                        <path d="M7.00751133,0.549796609 L10.5548158,4.1142867 C10.8451408,4.40668889 10.8451408,4.88016585 10.5548158,5.17256804 L5.24153438,10.5115907 C4.95054196,10.8033223 4.47934781,10.8033223 4.1890228,10.5115907 L0.641718381,6.94710064 C0.350725959,6.65536909 0.350725959,6.1812215 0.641718381,5.88948995 L5.95499975,0.549796609 C6.24532476,0.257394411 6.71718632,0.257394411 7.00751133,0.549796609" id="Fill-62"></path>
                    </g>
                    <g id="Group-67" transform="translate(0.000000, 4.960107)">
                        <mask id="mask-4" fill="white">
                            <use xlink:href="#path-3"></use>
                        </mask>
                        <g id="Clip-66"></g>
                        <path d="M46.8066651,45.8033958 L45.4978666,47.1192057 C45.1421351,47.4759901 44.5661569,47.4759901 44.2104254,47.1192057 L0.266565077,2.96245006 C-0.0891664855,2.60499508 -0.0891664855,2.02622651 0.266565077,1.66877153 L1.57536356,0.352961643 C1.93109513,-0.00382268928 2.50707325,-0.00382268928 2.86280481,0.352961643 L46.8066651,44.5097173 C47.1617293,44.8671723 47.1617293,45.4466115 46.8066651,45.8033958" id="Fill-65" fill="#B6D23F" mask="url(#mask-4)"></path>
                    </g>
                    <path d="M16.7896621,29.6263784 L14.0546003,32.3746908 C13.7636079,32.667093 13.2910789,32.667093 12.9994191,32.3746908 L1.13480371,20.4525948 C0.84314387,20.1595219 0.84314387,19.6847037 1.13480371,19.3923015 L3.86986551,16.6439891 C4.16152535,16.3509163 4.63338692,16.3509163 4.92504675,16.6439891 L16.7896621,28.5660851 C17.0813219,28.8584873 17.0813219,29.3333056 16.7896621,29.6263784" id="Fill-68" fill="#B6D23F"></path>
                </g>
            </g>
        </g>
    </g>
</svg>
